<?xml version="1.0" standalone="no"?>
<!DOCTYPE svg PUBLIC "-//W3C//DTD SVG 1.1//EN" "http://www.w3.org/Graphics/SVG/1.1/DTD/svg11.dtd">
<!--Generator: Xara Designer (www.xara.com), SVG filter version: 5.0.0.2-->
<svg stroke-width="0.501" stroke-linejoin="bevel" fill-rule="evenodd" xmlns:xlink="http://www.w3.org/1999/xlink" xmlns="http://www.w3.org/2000/svg" version="1.1" overflow="visible" width="154.5pt" height="51.75pt" viewBox="0 0 154.5 51.75">
 <defs>
  <marker id="DefaultArrow2" markerUnits="strokeWidth" viewBox="0 0 1 1" markerWidth="1" markerHeight="1" overflow="visible" orient="auto">
   <!-- REF_ARROW_STRAIGHT (-2) -->
   <g transform="scale(0.0092592592)">
    <!-- 1/108 -->
    <path d="M -9 54 L -9 -54 L 117 0 z"/>
   </g>
  </marker>
  <marker id="DefaultArrow3" markerUnits="strokeWidth" viewBox="0 0 1 1" markerWidth="1" markerHeight="1" overflow="visible" orient="auto">
   <!-- REF_ARROW_ANGLED -->
   <g transform="scale(0.0092592592)">
    <path d="M -27 54 L -9 0 L -27 -54 L 135 0 z"/>
   </g>
  </marker>
  <marker id="DefaultArrow4" markerUnits="strokeWidth" viewBox="0 0 1 1" markerWidth="1" markerHeight="1" overflow="visible" orient="auto">
   <!-- REF_ARROW_ROUNDED -->
   <g transform="scale(0.0092592592)">
    <path d="M -9,0 L -9,-45 C -9,-51.708 2.808,-56.580 9,-54 L 117,-9 C 120.916,-7.369 126.000,-4.242 126,0 C 126,4.242 120.916,7.369 117,9 L 9,54 C 2.808,56.580 -9,51.708 -9,45 z"/>
   </g>
  </marker>
  <marker id="DefaultArrow5" markerUnits="strokeWidth" viewBox="0 0 1 1" markerWidth="1" markerHeight="1" overflow="visible" orient="auto">
   <!-- REF_ARROW_SPOT -->
   <g transform="scale(0.0092592592)">
    <path d="M -54, 0 C -54,29.807 -29.807,54 0,54 C 29.807,54 54,29.807 54,0 C 54,-29.807 29.807,-54 0,-54 C -29.807,-54 -54,-29.807 -54,0 z"/>
   </g>
  </marker>
  <marker id="DefaultArrow6" markerUnits="strokeWidth" viewBox="0 0 1 1" markerWidth="1" markerHeight="1" overflow="visible" orient="auto">
   <!-- REF_ARROW_DIAMOND -->
   <g transform="scale(0.0092592592)">
    <path d="M -63,0 L 0,63 L 63,0 L 0,-63 z"/>
   </g>
  </marker>
  <marker id="DefaultArrow7" markerUnits="strokeWidth" viewBox="0 0 1 1" markerWidth="1" markerHeight="1" overflow="visible" orient="auto">
   <!-- REF_ARROW_FEATHER -->
   <g transform="scale(0.0092592592)">
    <path d="M 18,-54 L 108,-54 L 63,0 L 108,54 L 18, 54 L -36,0 z"/>
   </g>
  </marker>
  <marker id="DefaultArrow8" markerUnits="strokeWidth" viewBox="0 0 1 1" markerWidth="1" markerHeight="1" overflow="visible" orient="auto">
   <!-- REF_ARROW_FEATHER2 -->
   <g transform="scale(0.0092592592)">
    <path d="M -36,0 L 18,-54 L 54,-54 L 18,-18 L 27,-18 L 63,-54 L 99,-54 L 63,-18 L 72,-18 L 108,-54 L 144,-54 L 90,0 L 144,54 L 108,54 L 72,18 L 63,18 L 99,54 L 63,54 L 27,18 L 18,18 L 54,54 L 18,54 z"/>
   </g>
  </marker>
  <marker id="DefaultArrow9" markerUnits="strokeWidth" viewBox="0 0 1 1" markerWidth="1" markerHeight="1" overflow="visible" orient="auto">
   <!-- REF_ARROW_HOLLOWDIAMOND -->
   <g transform="scale(0.0092592592)">
    <path d="M 0,45 L -45,0 L 0, -45 L 45, 0 z M 0, 63 L-63, 0 L 0, -63 L 63, 0 z"/>
   </g>
  </marker>
  <filter id="StainedFilter">
   <feBlend mode="multiply" in2="BackgroundImage" in="SourceGraphic" result="blend"/>
   <feComposite in="blend" in2="SourceAlpha" operator="in" result="comp"/>
  </filter>
  <filter id="BleachFilter">
   <feBlend mode="screen" in2="BackgroundImage" in="SourceGraphic" result="blend"/>
   <feComposite in="blend" in2="SourceAlpha" operator="in" result="comp"/>
  </filter>
  <filter id="InvertTransparencyBitmapFilter">
   <feComponentTransfer>
    <feFuncR type="gamma" amplitude="1.055" exponent=".416666666" offset="-0.055"/>
    <feFuncG type="gamma" amplitude="1.055" exponent=".416666666" offset="-0.055"/>
    <feFuncB type="gamma" amplitude="1.055" exponent=".416666666" offset="-0.055"/>
   </feComponentTransfer>
   <feComponentTransfer>
    <feFuncR type="linear" slope="-1" intercept="1"/>
    <feFuncG type="linear" slope="-1" intercept="1"/>
    <feFuncB type="linear" slope="-1" intercept="1"/>
    <feFuncA type="linear" slope="1" intercept="0"/>
   </feComponentTransfer>
   <feComponentTransfer>
    <feFuncR type="gamma" amplitude="1" exponent="2.4" offset="0"/>
    <feFuncG type="gamma" amplitude="1" exponent="2.4" offset="0"/>
    <feFuncB type="gamma" amplitude="1" exponent="2.4" offset="0"/>
   </feComponentTransfer>
  </filter>
 </defs>
 <g id="Document" fill="none" stroke="black" font-family="Times New Roman" font-size="16" transform="scale(1 -1)">
  <g id="Spread" transform="translate(0 -51.75)">
   <g id="Layer 1">
    <g id="Group" stroke-linecap="round" stroke="none">
     <path d="M 33.733,17.256 C 33.692,17.284 33.671,17.323 33.667,17.376 C 33.667,17.453 33.701,17.519 33.769,17.575 C 33.835,17.632 33.931,17.698 34.056,17.774 C 34.227,17.871 34.4,17.989 34.574,18.126 C 34.748,18.263 34.899,18.394 35.028,18.517 C 35.39,18.86 35.713,19.212 35.999,19.574 C 36.286,19.934 36.535,20.351 36.748,20.824 C 36.96,21.297 37.136,21.871 37.276,22.547 C 37.417,23.224 37.521,24.048 37.591,25.021 C 37.661,25.993 37.696,27.16 37.696,28.521 L 37.696,36.191 C 37.696,37.217 37.695,38.058 37.695,38.714 C 37.694,39.37 37.691,39.896 37.688,40.291 C 37.685,40.687 37.68,41.007 37.672,41.252 C 37.664,41.496 37.654,41.72 37.64,41.924 C 37.623,42.37 37.532,42.711 37.365,42.948 C 37.2,43.185 36.893,43.348 36.446,43.435 C 36.328,43.463 36.188,43.482 36.026,43.496 C 35.862,43.508 35.715,43.515 35.584,43.515 C 35.486,43.516 35.411,43.533 35.358,43.568 C 35.306,43.602 35.279,43.646 35.278,43.7 C 35.277,43.754 35.308,43.797 35.373,43.831 C 35.437,43.866 35.544,43.883 35.696,43.884 C 36.013,43.884 36.347,43.879 36.698,43.872 C 37.048,43.864 37.381,43.855 37.695,43.845 C 38.01,43.836 38.272,43.827 38.484,43.819 C 38.696,43.812 38.821,43.807 38.862,43.807 C 38.903,43.807 39.025,43.812 39.228,43.819 C 39.431,43.827 39.676,43.836 39.962,43.845 C 40.248,43.855 40.536,43.864 40.826,43.872 C 41.116,43.879 41.369,43.884 41.583,43.884 C 41.735,43.885 41.848,43.87 41.92,43.838 C 41.993,43.806 42.028,43.751 42.027,43.674 C 42.025,43.62 41.995,43.581 41.937,43.555 C 41.879,43.529 41.807,43.515 41.723,43.515 C 41.624,43.515 41.521,43.51 41.41,43.499 C 41.298,43.489 41.181,43.476 41.055,43.463 C 40.69,43.422 40.441,43.271 40.309,43.011 C 40.177,42.752 40.101,42.389 40.083,41.924 C 40.069,41.72 40.059,41.496 40.051,41.252 C 40.043,41.007 40.039,40.687 40.034,40.291 C 40.032,39.896 40.029,39.37 40.028,38.714 C 40.027,38.058 40.027,37.217 40.027,36.191 L 40.027,29.822 C 40.029,28.755 40.025,27.831 40.015,27.05 C 40.004,26.269 39.973,25.587 39.923,25.003 C 39.874,24.417 39.791,23.886 39.676,23.408 C 39.562,22.928 39.401,22.457 39.194,21.994 C 38.911,21.337 38.445,20.681 37.793,20.023 C 37.142,19.366 36.257,18.67 35.14,17.933 C 34.954,17.81 34.763,17.685 34.567,17.562 C 34.371,17.438 34.2,17.341 34.056,17.27 C 34.029,17.256 34,17.244 33.97,17.234 C 33.939,17.223 33.903,17.218 33.862,17.217 C 33.817,17.217 33.774,17.23 33.733,17.256 Z M 69.966,27.255 C 69.064,27.431 68.252,27.69 67.528,28.034 C 66.805,28.38 66.148,28.807 65.557,29.318 C 64.835,29.949 64.274,30.627 63.876,31.35 C 63.478,32.073 63.202,32.806 63.048,33.55 C 62.894,34.293 62.82,35.008 62.826,35.696 C 62.823,36.062 62.861,36.481 62.938,36.956 C 63.017,37.429 63.149,37.931 63.336,38.461 C 63.525,38.99 63.783,39.522 64.111,40.055 C 64.441,40.587 64.854,41.096 65.354,41.58 C 65.801,42.016 66.339,42.406 66.968,42.753 C 67.597,43.099 68.344,43.373 69.209,43.576 C 70.074,43.779 71.084,43.881 72.238,43.886 C 72.542,43.886 72.877,43.878 73.242,43.862 C 73.608,43.846 73.983,43.819 74.371,43.781 C 74.759,43.742 75.139,43.691 75.511,43.627 C 75.933,43.554 76.335,43.495 76.715,43.45 C 77.096,43.403 77.492,43.355 77.902,43.304 C 77.981,43.293 78.033,43.266 78.063,43.225 C 78.093,43.184 78.108,43.132 78.105,43.067 C 78.105,43.012 78.099,42.94 78.087,42.85 C 78.075,42.76 78.06,42.637 78.043,42.479 C 78.026,42.322 78.008,42.116 77.994,41.86 C 77.979,41.614 77.967,41.342 77.96,41.04 C 77.954,40.739 77.947,40.46 77.943,40.202 C 77.938,39.943 77.933,39.756 77.925,39.64 C 77.916,39.48 77.895,39.364 77.866,39.292 C 77.837,39.222 77.789,39.186 77.722,39.187 C 77.646,39.187 77.596,39.225 77.573,39.3 C 77.55,39.377 77.539,39.49 77.542,39.64 C 77.542,39.923 77.503,40.203 77.426,40.479 C 77.35,40.754 77.243,41.01 77.101,41.245 C 76.96,41.48 76.79,41.677 76.595,41.839 C 76.327,42.057 75.967,42.259 75.514,42.444 C 75.061,42.63 74.543,42.778 73.958,42.892 C 73.373,43.006 72.746,43.063 72.08,43.067 C 71.086,43.061 70.251,42.979 69.575,42.822 C 68.901,42.664 68.349,42.467 67.919,42.227 C 67.49,41.989 67.146,41.744 66.888,41.493 C 66.345,40.99 65.925,40.444 65.63,39.854 C 65.334,39.264 65.13,38.635 65.018,37.969 C 64.905,37.303 64.852,36.602 64.857,35.869 C 64.86,35.041 64.987,34.24 65.241,33.468 C 65.494,32.695 65.859,31.978 66.335,31.315 C 66.81,30.652 67.382,30.071 68.051,29.572 C 68.72,29.074 69.47,28.686 70.303,28.406 C 71.136,28.128 72.036,27.986 73.005,27.982 C 73.57,27.978 74.094,28.006 74.575,28.064 C 75.057,28.122 75.495,28.231 75.89,28.387 C 76.283,28.543 76.631,28.768 76.932,29.059 C 77.091,29.223 77.228,29.421 77.344,29.653 C 77.462,29.884 77.555,30.111 77.626,30.332 C 77.698,30.555 77.745,30.734 77.768,30.868 C 77.788,30.986 77.814,31.07 77.846,31.121 C 77.878,31.171 77.927,31.196 77.994,31.194 C 78.049,31.191 78.089,31.158 78.115,31.096 C 78.14,31.034 78.152,30.957 78.151,30.868 C 78.151,30.824 78.135,30.694 78.105,30.477 C 78.076,30.261 78.036,30.005 77.988,29.708 C 77.939,29.41 77.885,29.118 77.827,28.83 C 77.769,28.541 77.712,28.301 77.655,28.111 C 77.612,27.977 77.571,27.876 77.533,27.805 C 77.494,27.735 77.44,27.678 77.371,27.634 C 77.301,27.59 77.201,27.54 77.068,27.487 C 76.76,27.372 76.382,27.279 75.934,27.206 C 75.486,27.133 75.009,27.078 74.5,27.044 C 73.992,27.01 73.493,26.993 73.005,26.993 C 71.88,26.993 70.867,27.08 69.966,27.255 Z M 101.888,27.123 C 101.377,27.212 100.891,27.362 100.425,27.576 C 100.323,27.622 100.246,27.673 100.197,27.726 C 100.149,27.779 100.119,27.856 100.105,27.958 C 100.091,28.058 100.085,28.204 100.088,28.395 C 100.09,28.939 100.106,29.413 100.136,29.812 C 100.164,30.211 100.186,30.5 100.201,30.679 C 100.211,30.797 100.229,30.884 100.257,30.94 C 100.284,30.996 100.325,31.024 100.381,31.024 C 100.446,31.025 100.489,31.007 100.51,30.97 C 100.53,30.932 100.541,30.872 100.538,30.786 C 100.537,30.687 100.54,30.568 100.546,30.429 C 100.554,30.289 100.574,30.143 100.607,29.99 C 100.726,29.461 100.953,29.034 101.287,28.711 C 101.621,28.387 102.021,28.153 102.485,28.007 C 102.949,27.861 103.438,27.789 103.95,27.791 C 104.491,27.796 104.964,27.88 105.368,28.046 C 105.773,28.21 106.109,28.431 106.377,28.707 C 106.645,28.984 106.846,29.29 106.979,29.628 C 107.112,29.965 107.179,30.308 107.179,30.657 C 107.182,31.145 107.103,31.587 106.937,31.983 C 106.772,32.38 106.499,32.78 106.118,33.181 C 105.738,33.583 105.226,34.035 104.582,34.537 L 103.565,35.334 C 102.776,35.954 102.169,36.528 101.742,37.054 C 101.315,37.58 101.022,38.083 100.861,38.563 C 100.7,39.044 100.625,39.526 100.633,40.01 C 100.638,40.784 100.829,41.46 101.207,42.04 C 101.585,42.62 102.122,43.07 102.818,43.394 C 103.515,43.717 104.344,43.881 105.304,43.887 C 105.742,43.886 106.132,43.867 106.473,43.828 C 106.814,43.789 107.125,43.738 107.404,43.674 C 107.614,43.63 107.777,43.602 107.892,43.587 C 108.008,43.571 108.109,43.564 108.194,43.565 C 108.282,43.565 108.343,43.554 108.375,43.531 C 108.407,43.507 108.421,43.468 108.42,43.415 C 108.416,43.363 108.401,43.154 108.375,42.782 C 108.348,42.411 108.334,41.861 108.329,41.131 C 108.33,40.959 108.318,40.834 108.293,40.754 C 108.267,40.673 108.228,40.634 108.172,40.635 C 108.107,40.635 108.062,40.66 108.039,40.711 C 108.016,40.76 108,40.828 107.991,40.915 C 107.983,41.005 107.964,41.119 107.935,41.257 C 107.906,41.394 107.87,41.53 107.828,41.666 C 107.787,41.8 107.744,41.91 107.697,41.993 C 107.666,42.056 107.598,42.148 107.492,42.272 C 107.385,42.394 107.227,42.52 107.015,42.653 C 106.802,42.785 106.523,42.897 106.174,42.989 C 105.825,43.082 105.392,43.131 104.875,43.135 C 104.35,43.133 103.879,43.034 103.463,42.836 C 103.046,42.639 102.715,42.355 102.471,41.982 C 102.228,41.611 102.103,41.161 102.097,40.635 C 102.091,40.234 102.169,39.858 102.33,39.509 C 102.492,39.161 102.772,38.79 103.175,38.399 C 103.577,38.007 104.136,37.546 104.852,37.014 L 105.485,36.54 C 106.364,35.88 107.043,35.273 107.524,34.72 C 108.003,34.168 108.335,33.632 108.518,33.111 C 108.702,32.589 108.79,32.045 108.781,31.477 C 108.787,31.173 108.735,30.811 108.629,30.39 C 108.523,29.969 108.33,29.539 108.052,29.099 C 107.773,28.66 107.376,28.259 106.863,27.898 C 106.371,27.578 105.834,27.346 105.251,27.204 C 104.666,27.061 104.067,26.99 103.452,26.993 C 102.92,26.99 102.398,27.034 101.888,27.123 Z M 119.051,27.501 C 118.096,27.833 117.273,28.285 116.583,28.857 C 115.892,29.43 115.324,30.079 114.881,30.806 C 114.438,31.533 114.11,32.295 113.897,33.092 C 113.685,33.89 113.579,34.679 113.58,35.462 C 113.579,36.17 113.687,36.908 113.907,37.679 C 114.126,38.45 114.462,39.202 114.916,39.936 C 115.37,40.67 115.947,41.333 116.65,41.927 C 117.354,42.52 118.188,42.994 119.155,43.346 C 120.122,43.698 121.228,43.878 122.473,43.887 C 123.75,43.884 124.926,43.699 126.002,43.33 C 127.078,42.963 128.015,42.429 128.812,41.731 C 129.611,41.031 130.23,40.184 130.671,39.187 C 131.112,38.193 131.336,37.065 131.343,35.807 C 131.338,34.593 131.125,33.454 130.7,32.394 C 130.277,31.333 129.67,30.398 128.881,29.589 C 128.09,28.782 127.144,28.148 126.04,27.691 C 124.936,27.233 123.702,27.002 122.337,26.993 C 121.101,27.001 120.006,27.169 119.051,27.501 Z M 150.798,27.244 C 150.693,27.317 150.53,27.454 150.312,27.654 C 150.093,27.854 149.787,28.143 149.393,28.519 C 149.339,28.568 149.179,28.719 148.914,28.973 C 148.651,29.229 148.313,29.559 147.901,29.961 C 147.489,30.364 147.035,30.813 146.537,31.305 C 146.04,31.798 145.531,32.307 145.009,32.831 C 144.488,33.355 143.985,33.865 143.501,34.362 C 142.842,35.04 142.201,35.705 141.578,36.357 C 140.953,37.007 140.376,37.613 139.844,38.175 C 139.312,38.737 138.853,39.223 138.466,39.634 C 138.08,40.044 137.794,40.35 137.609,40.549 L 137.902,30.223 C 137.916,29.637 137.954,29.173 138.015,28.826 C 138.077,28.48 138.169,28.223 138.294,28.054 C 138.418,27.884 138.581,27.773 138.783,27.722 C 139.006,27.668 139.221,27.634 139.432,27.617 C 139.642,27.598 139.802,27.59 139.912,27.592 C 139.969,27.592 140.013,27.581 140.044,27.56 C 140.076,27.539 140.092,27.506 140.092,27.464 C 140.092,27.4 140.059,27.355 139.99,27.33 C 139.923,27.304 139.822,27.291 139.686,27.293 C 139.037,27.295 138.501,27.305 138.084,27.323 C 137.665,27.342 137.402,27.353 137.294,27.355 C 137.222,27.354 137.08,27.349 136.868,27.338 C 136.655,27.329 136.399,27.319 136.096,27.309 C 135.794,27.298 135.471,27.294 135.129,27.293 C 135.015,27.29 134.927,27.301 134.864,27.321 C 134.8,27.344 134.768,27.391 134.767,27.464 C 134.767,27.506 134.784,27.539 134.815,27.56 C 134.847,27.581 134.89,27.592 134.948,27.592 C 135.044,27.59 135.179,27.598 135.351,27.617 C 135.523,27.634 135.697,27.668 135.873,27.722 C 136.059,27.766 136.201,27.88 136.299,28.063 C 136.397,28.244 136.465,28.527 136.5,28.911 C 136.536,29.295 136.553,29.811 136.55,30.459 L 136.55,33.649 C 136.55,34.751 136.551,35.664 136.553,36.386 C 136.554,37.109 136.556,37.693 136.558,38.135 C 136.561,38.58 136.564,38.936 136.565,39.203 C 136.569,39.472 136.571,39.704 136.573,39.898 C 136.575,40.092 136.578,40.302 136.578,40.526 C 136.579,40.749 136.579,41.038 136.578,41.393 C 136.578,41.748 136.577,42.22 136.572,42.809 C 136.572,43.222 136.59,43.506 136.629,43.662 C 136.668,43.82 136.731,43.894 136.821,43.887 C 136.882,43.883 136.961,43.838 137.055,43.756 C 137.149,43.673 137.245,43.579 137.344,43.472 C 137.444,43.365 137.532,43.273 137.609,43.197 C 137.702,43.098 137.959,42.827 138.385,42.387 C 138.81,41.948 139.355,41.384 140.021,40.697 C 140.689,40.01 141.43,39.248 142.247,38.409 C 143.064,37.571 143.911,36.702 144.788,35.807 C 145.352,35.229 145.914,34.649 146.476,34.063 C 147.037,33.478 147.567,32.925 148.064,32.403 C 148.562,31.881 148.996,31.425 149.369,31.037 C 149.741,30.649 150.02,30.363 150.206,30.179 L 149.958,41.132 C 149.952,41.595 149.925,41.966 149.875,42.246 C 149.825,42.527 149.737,42.739 149.611,42.883 C 149.486,43.027 149.308,43.126 149.077,43.18 C 148.872,43.222 148.685,43.251 148.516,43.265 C 148.347,43.281 148.21,43.288 148.106,43.287 C 147.984,43.288 147.901,43.302 147.855,43.33 C 147.81,43.358 147.788,43.393 147.79,43.438 C 147.793,43.499 147.834,43.54 147.915,43.56 C 147.996,43.579 148.105,43.588 148.242,43.587 C 148.586,43.586 148.921,43.58 149.247,43.571 C 149.572,43.561 149.855,43.551 150.096,43.54 C 150.336,43.53 150.501,43.524 150.589,43.524 C 150.719,43.527 150.954,43.537 151.293,43.555 C 151.633,43.573 152.037,43.584 152.506,43.587 C 152.631,43.588 152.731,43.579 152.803,43.56 C 152.874,43.54 152.911,43.499 152.912,43.438 C 152.912,43.394 152.89,43.361 152.847,43.338 C 152.805,43.314 152.743,43.297 152.665,43.287 C 152.578,43.277 152.491,43.265 152.404,43.252 C 152.318,43.239 152.209,43.222 152.077,43.201 C 151.868,43.164 151.707,43.087 151.592,42.971 C 151.477,42.855 151.397,42.663 151.352,42.396 C 151.307,42.129 151.286,41.751 151.287,41.261 L 151.243,28.671 C 151.243,28.203 151.237,27.861 151.225,27.642 C 151.213,27.422 151.193,27.281 151.162,27.221 C 151.133,27.159 151.092,27.132 151.04,27.14 C 150.985,27.135 150.904,27.171 150.798,27.244 Z M 44.363,27.33 C 44.292,27.355 44.258,27.4 44.258,27.464 C 44.259,27.506 44.286,27.539 44.34,27.56 C 44.394,27.581 44.472,27.592 44.574,27.592 C 44.655,27.592 44.742,27.596 44.836,27.605 C 44.931,27.613 45.023,27.624 45.116,27.635 C 45.458,27.681 45.746,27.796 45.979,27.978 C 46.211,28.162 46.408,28.397 46.57,28.686 C 46.733,28.974 46.879,29.3 47.011,29.661 L 52.134,43.046 C 52.223,43.28 52.295,43.459 52.352,43.58 C 52.409,43.702 52.459,43.785 52.502,43.827 C 52.544,43.869 52.586,43.889 52.63,43.887 C 52.674,43.889 52.717,43.872 52.758,43.834 C 52.8,43.796 52.851,43.722 52.908,43.609 C 52.965,43.497 53.038,43.33 53.127,43.11 C 53.178,42.987 53.287,42.719 53.452,42.305 C 53.619,41.892 53.826,41.372 54.076,40.749 C 54.326,40.125 54.602,39.437 54.904,38.683 C 55.207,37.93 55.521,37.151 55.844,36.348 C 56.168,35.544 56.486,34.755 56.8,33.981 C 57.112,33.206 57.406,32.488 57.677,31.823 C 57.95,31.158 58.185,30.589 58.384,30.114 C 58.656,29.483 58.908,29.002 59.143,28.67 C 59.378,28.338 59.594,28.105 59.791,27.973 C 59.989,27.839 60.167,27.756 60.324,27.722 C 60.498,27.668 60.664,27.634 60.824,27.617 C 60.984,27.598 61.11,27.59 61.205,27.592 C 61.275,27.593 61.333,27.585 61.38,27.568 C 61.426,27.55 61.451,27.515 61.453,27.464 C 61.449,27.4 61.406,27.355 61.32,27.33 C 61.236,27.304 61.129,27.291 61.002,27.293 C 60.88,27.293 60.639,27.293 60.279,27.294 C 59.919,27.295 59.49,27.298 58.994,27.305 C 58.499,27.311 57.987,27.321 57.459,27.335 C 57.244,27.343 57.077,27.354 56.959,27.37 C 56.843,27.385 56.784,27.424 56.783,27.485 C 56.784,27.527 56.799,27.561 56.827,27.584 C 56.857,27.608 56.894,27.625 56.94,27.635 C 57.013,27.657 57.07,27.716 57.109,27.813 C 57.149,27.91 57.137,28.045 57.076,28.217 L 54.976,33.52 C 54.956,33.564 54.931,33.597 54.901,33.618 C 54.871,33.64 54.829,33.65 54.773,33.65 L 49.922,33.65 C 49.866,33.65 49.82,33.634 49.784,33.605 C 49.747,33.575 49.719,33.533 49.697,33.478 L 48.343,29.661 C 48.241,29.39 48.162,29.13 48.109,28.883 C 48.055,28.636 48.028,28.413 48.027,28.217 C 48.03,28.073 48.072,27.956 48.152,27.863 C 48.232,27.772 48.335,27.702 48.458,27.658 C 48.581,27.613 48.709,27.592 48.839,27.592 L 49.042,27.592 C 49.154,27.592 49.23,27.581 49.274,27.56 C 49.316,27.539 49.338,27.506 49.335,27.464 C 49.331,27.4 49.289,27.355 49.209,27.33 C 49.128,27.304 49.035,27.291 48.929,27.293 C 48.743,27.294 48.534,27.298 48.305,27.309 C 48.076,27.319 47.862,27.329 47.666,27.338 C 47.469,27.349 47.326,27.354 47.237,27.355 C 47.147,27.354 46.969,27.349 46.701,27.338 C 46.434,27.329 46.122,27.319 45.764,27.309 C 45.407,27.298 45.047,27.294 44.687,27.293 C 44.541,27.291 44.432,27.304 44.363,27.33 Z M 82.765,27.319 C 82.707,27.338 82.677,27.38 82.678,27.442 C 82.675,27.476 82.692,27.509 82.726,27.54 C 82.761,27.572 82.827,27.589 82.926,27.592 C 82.997,27.592 83.087,27.597 83.194,27.608 C 83.301,27.619 83.408,27.635 83.514,27.657 C 83.733,27.706 83.891,27.839 83.987,28.058 C 84.083,28.276 84.15,28.545 84.19,28.864 C 84.227,29.168 84.253,29.554 84.27,30.02 C 84.286,30.485 84.295,31.016 84.299,31.61 C 84.302,32.206 84.303,32.85 84.303,33.542 L 84.303,37.337 C 84.303,38.171 84.303,38.853 84.302,39.386 C 84.302,39.919 84.3,40.346 84.298,40.667 C 84.294,40.989 84.291,41.249 84.284,41.448 C 84.278,41.646 84.269,41.829 84.258,41.994 C 84.237,42.358 84.165,42.638 84.043,42.832 C 83.921,43.027 83.737,43.149 83.491,43.201 C 83.357,43.233 83.211,43.255 83.05,43.269 C 82.89,43.281 82.765,43.288 82.678,43.287 C 82.588,43.287 82.524,43.297 82.487,43.319 C 82.448,43.341 82.429,43.373 82.43,43.416 C 82.43,43.479 82.458,43.523 82.518,43.549 C 82.576,43.575 82.667,43.588 82.791,43.587 C 82.983,43.587 83.206,43.584 83.46,43.577 C 83.713,43.571 83.964,43.563 84.213,43.555 C 84.461,43.547 84.673,43.54 84.847,43.533 C 85.022,43.528 85.127,43.524 85.16,43.524 C 85.194,43.524 85.294,43.528 85.458,43.533 C 85.623,43.54 85.822,43.547 86.055,43.555 C 86.287,43.563 86.521,43.571 86.758,43.577 C 86.993,43.584 87.198,43.587 87.373,43.587 C 87.496,43.587 87.587,43.576 87.646,43.552 C 87.705,43.528 87.734,43.49 87.733,43.438 C 87.735,43.394 87.719,43.361 87.685,43.338 C 87.651,43.314 87.584,43.297 87.484,43.287 C 87.369,43.278 87.285,43.27 87.229,43.265 C 87.172,43.261 87.092,43.254 86.989,43.244 C 86.69,43.211 86.48,43.089 86.359,42.877 C 86.238,42.666 86.17,42.372 86.154,41.994 C 86.143,41.829 86.133,41.646 86.128,41.448 C 86.121,41.249 86.116,40.989 86.114,40.667 C 86.111,40.346 86.109,39.919 86.109,39.386 C 86.108,38.853 86.108,38.171 86.108,37.337 L 86.108,35.957 C 86.253,36.092 86.478,36.308 86.78,36.604 C 87.083,36.901 87.431,37.244 87.825,37.636 C 88.22,38.028 88.628,38.433 89.05,38.853 C 89.471,39.273 89.874,39.675 90.257,40.057 C 90.641,40.438 90.973,40.768 91.254,41.045 C 91.698,41.483 92.023,41.819 92.23,42.051 C 92.437,42.284 92.569,42.456 92.624,42.568 C 92.68,42.681 92.705,42.777 92.699,42.856 C 92.698,42.945 92.671,43.027 92.619,43.101 C 92.567,43.176 92.496,43.231 92.404,43.265 C 92.327,43.296 92.273,43.326 92.245,43.354 C 92.215,43.382 92.2,43.417 92.202,43.458 C 92.203,43.502 92.234,43.533 92.295,43.555 C 92.355,43.576 92.437,43.587 92.54,43.587 C 92.7,43.587 92.826,43.584 92.92,43.577 C 93.014,43.571 93.098,43.563 93.174,43.555 C 93.251,43.547 93.343,43.54 93.451,43.533 C 93.559,43.528 93.706,43.524 93.894,43.524 C 94.074,43.524 94.279,43.528 94.512,43.533 C 94.746,43.54 94.981,43.547 95.217,43.555 C 95.454,43.563 95.668,43.571 95.859,43.577 C 96.05,43.584 96.191,43.587 96.286,43.587 C 96.44,43.586 96.544,43.571 96.596,43.544 C 96.649,43.516 96.674,43.48 96.67,43.438 C 96.672,43.394 96.657,43.361 96.621,43.338 C 96.587,43.314 96.521,43.297 96.422,43.287 C 96.206,43.265 96,43.233 95.803,43.19 C 95.608,43.148 95.43,43.093 95.27,43.028 C 95.089,42.963 94.903,42.874 94.712,42.763 C 94.522,42.653 94.287,42.485 94.009,42.259 C 93.73,42.033 93.368,41.715 92.923,41.304 C 92.42,40.84 91.901,40.356 91.365,39.854 C 90.827,39.352 90.315,38.868 89.827,38.404 C 89.337,37.939 88.912,37.532 88.551,37.18 C 88.189,36.829 87.932,36.572 87.779,36.409 C 88.07,36.104 88.447,35.722 88.908,35.261 C 89.369,34.8 89.869,34.306 90.406,33.778 C 90.945,33.251 91.476,32.734 91.999,32.227 C 92.524,31.722 92.994,31.27 93.412,30.874 C 93.831,30.478 94.148,30.182 94.368,29.985 C 94.977,29.438 95.492,29.004 95.915,28.686 C 96.338,28.369 96.718,28.132 97.056,27.977 C 97.394,27.823 97.738,27.716 98.092,27.657 C 98.194,27.635 98.3,27.619 98.41,27.608 C 98.521,27.597 98.633,27.592 98.746,27.592 C 98.838,27.592 98.914,27.581 98.972,27.557 C 99.03,27.533 99.06,27.495 99.062,27.442 C 99.063,27.39 99.038,27.351 98.986,27.327 C 98.934,27.304 98.846,27.293 98.723,27.293 L 97.054,27.293 C 96.568,27.291 96.157,27.307 95.82,27.342 C 95.485,27.376 95.192,27.432 94.943,27.509 C 94.694,27.588 94.459,27.694 94.236,27.827 C 94.012,27.96 93.77,28.126 93.511,28.324 C 93.233,28.534 92.868,28.849 92.411,29.27 C 91.956,29.691 91.449,30.177 90.892,30.729 C 90.335,31.28 89.765,31.857 89.182,32.459 C 88.599,33.06 88.042,33.646 87.511,34.217 C 86.979,34.788 86.512,35.304 86.108,35.763 L 86.108,33.542 C 86.108,32.85 86.109,32.206 86.113,31.61 C 86.116,31.016 86.127,30.485 86.143,30.02 C 86.157,29.554 86.185,29.168 86.221,28.864 C 86.241,28.654 86.277,28.466 86.328,28.298 C 86.381,28.13 86.468,27.992 86.588,27.885 C 86.707,27.778 86.878,27.708 87.101,27.678 C 87.209,27.663 87.325,27.65 87.446,27.636 C 87.568,27.624 87.678,27.613 87.78,27.604 C 87.881,27.596 87.956,27.592 88.003,27.592 C 88.104,27.589 88.175,27.572 88.216,27.54 C 88.257,27.509 88.276,27.476 88.275,27.442 C 88.276,27.39 88.251,27.351 88.199,27.327 C 88.146,27.304 88.059,27.293 87.936,27.293 C 87.622,27.293 87.309,27.296 86.995,27.303 C 86.681,27.309 86.391,27.315 86.125,27.323 C 85.858,27.331 85.639,27.339 85.467,27.345 C 85.295,27.351 85.192,27.354 85.16,27.355 C 85.127,27.354 85.033,27.351 84.877,27.345 C 84.721,27.339 84.531,27.331 84.311,27.323 C 84.091,27.315 83.867,27.309 83.64,27.303 C 83.414,27.296 83.212,27.293 83.039,27.293 C 82.916,27.29 82.825,27.299 82.765,27.319 Z M 124.375,27.978 C 124.912,28.096 125.46,28.306 126.018,28.608 C 126.576,28.911 127.094,29.338 127.57,29.893 C 128.047,30.446 128.432,31.158 128.724,32.027 C 129.019,32.896 129.169,33.955 129.178,35.204 C 129.17,36.498 128.98,37.639 128.607,38.628 C 128.235,39.618 127.727,40.448 127.084,41.119 C 126.441,41.791 125.71,42.299 124.892,42.64 C 124.074,42.984 123.214,43.155 122.315,43.156 C 121.367,43.156 120.494,43.007 119.694,42.712 C 118.895,42.416 118.199,41.973 117.604,41.38 C 117.012,40.789 116.551,40.05 116.222,39.165 C 115.895,38.278 115.727,37.245 115.723,36.066 C 115.728,34.807 115.914,33.671 116.28,32.658 C 116.646,31.646 117.156,30.778 117.811,30.056 C 118.466,29.335 119.23,28.782 120.104,28.396 C 120.977,28.01 121.925,27.816 122.947,27.813 C 123.362,27.807 123.837,27.862 124.375,27.978 Z M 54.577,34.467 C 54.586,34.495 54.584,34.53 54.57,34.574 L 52.427,40.395 C 52.314,40.718 52.201,40.718 52.089,40.395 L 50.102,34.574 C 50.082,34.521 50.078,34.482 50.094,34.458 C 50.11,34.434 50.135,34.423 50.171,34.424 L 54.48,34.424 C 54.535,34.425 54.567,34.439 54.577,34.467 Z" fill="#a9bc56" fill-rule="nonzero" stroke-linejoin="round" stroke-width="0.673" marker-start="none" marker-end="none" stroke-miterlimit="79.8403193612775"/>
     <g id="Group_1" fill-rule="nonzero" stroke-linejoin="round" stroke-width="0.24" fill="#5d5655" stroke-miterlimit="79.8403193612775">
      <g id="Group_2">
       <path d="M 58.52,16.978 C 58.365,16.991 58.192,17.018 57.999,17.06 C 57.806,17.104 57.61,17.171 57.409,17.262 C 57.208,17.353 57.019,17.478 56.84,17.635 C 56.676,17.78 56.53,17.959 56.401,18.172 C 56.271,18.384 56.17,18.647 56.095,18.965 C 56.019,19.281 55.98,19.667 55.979,20.125 L 55.979,21.508 C 55.979,21.874 55.978,22.174 55.978,22.408 C 55.978,22.642 55.977,22.829 55.976,22.971 C 55.975,23.112 55.974,23.226 55.97,23.313 C 55.968,23.401 55.963,23.481 55.959,23.554 C 55.953,23.712 55.92,23.834 55.861,23.919 C 55.801,24.003 55.692,24.061 55.533,24.092 C 55.49,24.102 55.434,24.109 55.368,24.114 C 55.302,24.118 55.243,24.122 55.195,24.122 C 55.175,24.122 55.157,24.126 55.141,24.136 C 55.125,24.145 55.117,24.158 55.116,24.178 C 55.116,24.205 55.128,24.225 55.154,24.236 C 55.181,24.247 55.221,24.253 55.275,24.253 C 55.388,24.253 55.506,24.251 55.629,24.248 C 55.751,24.246 55.867,24.243 55.978,24.239 C 56.089,24.236 56.184,24.232 56.261,24.229 C 56.34,24.227 56.39,24.226 56.414,24.226 C 56.438,24.226 56.488,24.227 56.563,24.229 C 56.639,24.232 56.727,24.236 56.827,24.239 C 56.927,24.243 57.028,24.246 57.128,24.248 C 57.23,24.251 57.319,24.253 57.395,24.253 C 57.449,24.253 57.49,24.247 57.515,24.236 C 57.541,24.225 57.554,24.205 57.554,24.178 C 57.553,24.158 57.545,24.145 57.529,24.136 C 57.513,24.126 57.495,24.122 57.474,24.122 C 57.441,24.122 57.407,24.118 57.369,24.114 C 57.333,24.109 57.285,24.102 57.226,24.092 C 57.095,24.075 57.003,24.021 56.95,23.932 C 56.897,23.845 56.867,23.718 56.86,23.554 C 56.854,23.481 56.851,23.401 56.849,23.313 C 56.845,23.226 56.843,23.112 56.842,22.971 C 56.842,22.829 56.841,22.642 56.841,22.408 C 56.84,22.174 56.84,21.874 56.84,21.508 L 56.84,20.182 C 56.842,19.731 56.874,19.356 56.938,19.056 C 57.003,18.757 57.091,18.51 57.201,18.319 C 57.313,18.128 57.44,17.97 57.584,17.843 C 57.744,17.7 57.904,17.591 58.062,17.514 C 58.22,17.439 58.382,17.388 58.549,17.36 C 58.717,17.334 58.893,17.322 59.08,17.323 C 59.284,17.324 59.481,17.352 59.674,17.408 C 59.865,17.465 60.045,17.545 60.209,17.647 C 60.374,17.748 60.517,17.868 60.637,18.004 C 60.787,18.185 60.905,18.393 60.988,18.629 C 61.073,18.865 61.131,19.124 61.164,19.41 C 61.197,19.694 61.213,19.998 61.212,20.325 L 61.212,21.508 C 61.212,21.874 61.212,22.174 61.212,22.408 C 61.212,22.642 61.211,22.829 61.21,22.971 C 61.208,23.112 61.206,23.226 61.204,23.313 C 61.2,23.401 61.197,23.481 61.192,23.554 C 61.186,23.712 61.154,23.834 61.094,23.919 C 61.035,24.003 60.925,24.061 60.766,24.092 C 60.722,24.102 60.668,24.109 60.601,24.114 C 60.534,24.118 60.477,24.122 60.429,24.122 C 60.409,24.122 60.39,24.126 60.374,24.136 C 60.358,24.145 60.35,24.158 60.349,24.178 C 60.349,24.205 60.362,24.225 60.388,24.236 C 60.413,24.247 60.454,24.253 60.508,24.253 C 60.661,24.252 60.813,24.25 60.965,24.246 C 61.118,24.242 61.25,24.237 61.359,24.232 C 61.469,24.228 61.536,24.226 61.559,24.226 C 61.585,24.226 61.645,24.228 61.739,24.232 C 61.834,24.237 61.94,24.242 62.058,24.246 C 62.178,24.25 62.289,24.252 62.392,24.253 C 62.445,24.253 62.485,24.247 62.511,24.236 C 62.538,24.225 62.55,24.205 62.55,24.178 C 62.549,24.158 62.541,24.145 62.525,24.136 C 62.509,24.126 62.491,24.122 62.47,24.122 C 62.437,24.122 62.402,24.118 62.365,24.114 C 62.329,24.109 62.281,24.102 62.223,24.092 C 62.092,24.066 61.999,24.011 61.947,23.926 C 61.893,23.841 61.863,23.717 61.857,23.554 C 61.851,23.481 61.847,23.401 61.844,23.313 C 61.842,23.226 61.839,23.112 61.838,22.971 C 61.837,22.829 61.837,22.642 61.836,22.408 C 61.836,22.174 61.836,21.874 61.836,21.508 L 61.836,20.495 C 61.839,20.15 61.819,19.804 61.776,19.455 C 61.732,19.107 61.644,18.779 61.513,18.469 C 61.382,18.159 61.186,17.891 60.924,17.664 C 60.686,17.464 60.446,17.314 60.208,17.212 C 59.969,17.112 59.738,17.043 59.513,17.01 C 59.288,16.976 59.078,16.96 58.882,16.962 C 58.795,16.961 58.674,16.967 58.52,16.978 Z M 123.059,16.978 C 122.905,16.991 122.732,17.018 122.539,17.06 C 122.346,17.104 122.149,17.171 121.949,17.262 C 121.748,17.353 121.559,17.478 121.38,17.635 C 121.217,17.78 121.071,17.959 120.94,18.172 C 120.812,18.384 120.709,18.647 120.634,18.965 C 120.558,19.281 120.521,19.667 120.518,20.125 L 120.518,21.508 C 120.518,21.874 120.518,22.174 120.518,22.408 C 120.518,22.642 120.517,22.829 120.516,22.971 C 120.515,23.112 120.513,23.226 120.51,23.313 C 120.507,23.401 120.503,23.481 120.499,23.554 C 120.493,23.712 120.46,23.834 120.401,23.919 C 120.341,24.003 120.232,24.061 120.072,24.092 C 120.029,24.102 119.974,24.109 119.908,24.114 C 119.841,24.118 119.783,24.122 119.736,24.122 C 119.714,24.122 119.697,24.126 119.681,24.136 C 119.665,24.145 119.657,24.158 119.656,24.178 C 119.656,24.205 119.668,24.225 119.694,24.236 C 119.72,24.247 119.761,24.253 119.814,24.253 C 119.928,24.253 120.046,24.251 120.168,24.248 C 120.291,24.246 120.408,24.243 120.518,24.239 C 120.629,24.236 120.724,24.232 120.801,24.229 C 120.879,24.227 120.93,24.226 120.954,24.226 C 120.978,24.226 121.028,24.227 121.104,24.229 C 121.178,24.232 121.266,24.236 121.366,24.239 C 121.466,24.243 121.568,24.246 121.668,24.248 C 121.77,24.251 121.859,24.253 121.935,24.253 C 121.989,24.253 122.029,24.247 122.055,24.236 C 122.081,24.225 122.094,24.205 122.094,24.178 C 122.093,24.158 122.085,24.145 122.069,24.136 C 122.053,24.126 122.035,24.122 122.014,24.122 C 121.981,24.122 121.946,24.118 121.909,24.114 C 121.871,24.109 121.825,24.102 121.767,24.092 C 121.635,24.075 121.543,24.021 121.49,23.932 C 121.437,23.845 121.407,23.718 121.399,23.554 C 121.395,23.481 121.391,23.401 121.388,23.313 C 121.385,23.226 121.383,23.112 121.382,22.971 C 121.381,22.829 121.381,22.642 121.38,22.408 C 121.38,22.174 121.38,21.874 121.38,21.508 L 121.38,20.182 C 121.381,19.731 121.414,19.356 121.478,19.056 C 121.542,18.757 121.63,18.51 121.741,18.319 C 121.853,18.128 121.98,17.97 122.124,17.843 C 122.285,17.7 122.443,17.591 122.602,17.514 C 122.759,17.439 122.922,17.388 123.089,17.36 C 123.256,17.334 123.434,17.322 123.621,17.323 C 123.824,17.324 124.021,17.352 124.213,17.408 C 124.406,17.465 124.585,17.545 124.749,17.647 C 124.913,17.748 125.056,17.868 125.177,18.004 C 125.328,18.185 125.445,18.393 125.528,18.629 C 125.613,18.865 125.671,19.124 125.704,19.41 C 125.737,19.694 125.753,19.998 125.752,20.325 L 125.752,21.508 C 125.752,21.874 125.752,22.174 125.752,22.408 C 125.751,22.642 125.751,22.829 125.75,22.971 C 125.747,23.112 125.746,23.226 125.744,23.313 C 125.741,23.401 125.737,23.481 125.731,23.554 C 125.726,23.712 125.693,23.834 125.634,23.919 C 125.575,24.003 125.466,24.061 125.306,24.092 C 125.263,24.102 125.208,24.109 125.14,24.114 C 125.074,24.118 125.016,24.122 124.968,24.122 C 124.948,24.122 124.929,24.126 124.915,24.136 C 124.899,24.145 124.891,24.158 124.889,24.178 C 124.889,24.205 124.902,24.225 124.927,24.236 C 124.953,24.247 124.993,24.253 125.048,24.253 C 125.2,24.252 125.353,24.25 125.506,24.246 C 125.658,24.242 125.79,24.237 125.899,24.232 C 126.009,24.228 126.075,24.226 126.099,24.226 C 126.125,24.226 126.186,24.228 126.279,24.232 C 126.373,24.237 126.48,24.242 126.599,24.246 C 126.717,24.25 126.829,24.252 126.931,24.253 C 126.985,24.253 127.025,24.247 127.052,24.236 C 127.078,24.225 127.09,24.205 127.089,24.178 C 127.089,24.158 127.08,24.145 127.065,24.136 C 127.049,24.126 127.031,24.122 127.011,24.122 C 126.977,24.122 126.942,24.118 126.906,24.114 C 126.868,24.109 126.821,24.102 126.763,24.092 C 126.632,24.066 126.539,24.011 126.486,23.926 C 126.433,23.841 126.404,23.717 126.396,23.554 C 126.391,23.481 126.388,23.401 126.384,23.313 C 126.382,23.226 126.38,23.112 126.378,22.971 C 126.377,22.829 126.376,22.642 126.376,22.408 C 126.376,22.174 126.376,21.874 126.376,21.508 L 126.376,20.495 C 126.38,20.15 126.359,19.804 126.316,19.455 C 126.272,19.107 126.184,18.779 126.053,18.469 C 125.921,18.159 125.725,17.891 125.464,17.664 C 125.225,17.464 124.986,17.314 124.748,17.212 C 124.508,17.112 124.278,17.043 124.053,17.01 C 123.828,16.976 123.618,16.96 123.422,16.962 C 123.335,16.961 123.214,16.967 123.059,16.978 Z M 90.576,17.073 C 90.53,17.105 90.459,17.165 90.362,17.253 C 90.266,17.341 90.131,17.468 89.959,17.633 C 89.935,17.655 89.864,17.721 89.748,17.833 C 89.633,17.944 89.484,18.089 89.303,18.266 C 89.123,18.444 88.922,18.64 88.704,18.857 C 88.485,19.074 88.261,19.297 88.033,19.527 C 87.804,19.758 87.582,19.982 87.37,20.2 C 87.08,20.498 86.799,20.79 86.525,21.077 C 86.251,21.362 85.998,21.629 85.764,21.875 C 85.53,22.122 85.328,22.335 85.158,22.516 C 84.989,22.697 84.863,22.83 84.781,22.918 L 84.91,18.381 C 84.917,18.125 84.933,17.921 84.96,17.768 C 84.987,17.616 85.028,17.503 85.083,17.429 C 85.137,17.355 85.209,17.306 85.297,17.283 C 85.395,17.259 85.49,17.244 85.582,17.236 C 85.675,17.229 85.745,17.225 85.793,17.226 C 85.818,17.226 85.838,17.221 85.852,17.212 C 85.865,17.202 85.872,17.188 85.872,17.17 C 85.872,17.141 85.857,17.122 85.828,17.11 C 85.798,17.099 85.753,17.093 85.694,17.094 C 85.409,17.096 85.174,17.1 84.99,17.108 C 84.806,17.116 84.691,17.121 84.643,17.122 C 84.611,17.122 84.55,17.12 84.456,17.115 C 84.363,17.11 84.25,17.106 84.117,17.101 C 83.984,17.097 83.842,17.094 83.692,17.094 C 83.641,17.093 83.603,17.098 83.575,17.107 C 83.548,17.116 83.533,17.137 83.533,17.17 C 83.533,17.188 83.54,17.202 83.554,17.212 C 83.568,17.221 83.588,17.226 83.613,17.226 C 83.655,17.225 83.713,17.229 83.79,17.236 C 83.865,17.244 83.942,17.259 84.019,17.283 C 84.1,17.302 84.163,17.352 84.206,17.432 C 84.25,17.512 84.278,17.636 84.294,17.805 C 84.31,17.974 84.317,18.2 84.316,18.485 L 84.316,19.886 C 84.316,20.371 84.317,20.772 84.317,21.089 C 84.318,21.406 84.319,21.663 84.32,21.858 C 84.321,22.053 84.323,22.21 84.324,22.327 C 84.325,22.446 84.325,22.547 84.326,22.632 C 84.327,22.717 84.328,22.81 84.328,22.908 C 84.329,23.006 84.329,23.133 84.328,23.289 C 84.328,23.445 84.327,23.653 84.326,23.911 C 84.326,24.092 84.334,24.218 84.351,24.286 C 84.368,24.355 84.396,24.388 84.434,24.384 C 84.463,24.383 84.497,24.364 84.538,24.327 C 84.579,24.291 84.622,24.248 84.666,24.202 C 84.709,24.155 84.747,24.115 84.781,24.082 C 84.822,24.037 84.935,23.92 85.122,23.726 C 85.31,23.532 85.549,23.284 85.841,22.983 C 86.135,22.682 86.461,22.346 86.819,21.978 C 87.179,21.609 87.55,21.228 87.935,20.835 C 88.184,20.581 88.43,20.326 88.677,20.069 C 88.923,19.812 89.156,19.568 89.375,19.339 C 89.593,19.109 89.785,18.91 89.948,18.74 C 90.112,18.569 90.234,18.443 90.316,18.362 L 90.207,23.174 C 90.204,23.378 90.192,23.541 90.17,23.664 C 90.149,23.788 90.11,23.881 90.055,23.944 C 90,24.007 89.921,24.05 89.82,24.074 C 89.73,24.092 89.648,24.105 89.573,24.112 C 89.499,24.118 89.439,24.122 89.393,24.122 C 89.34,24.122 89.303,24.128 89.284,24.14 C 89.263,24.151 89.254,24.167 89.255,24.187 C 89.255,24.214 89.273,24.232 89.309,24.24 C 89.345,24.25 89.393,24.253 89.453,24.253 C 89.604,24.252 89.751,24.25 89.894,24.246 C 90.038,24.242 90.162,24.237 90.267,24.232 C 90.373,24.228 90.445,24.226 90.484,24.226 C 90.541,24.227 90.645,24.231 90.793,24.239 C 90.943,24.247 91.121,24.252 91.326,24.253 C 91.382,24.253 91.425,24.25 91.457,24.24 C 91.488,24.232 91.504,24.214 91.505,24.187 C 91.504,24.169 91.495,24.154 91.477,24.143 C 91.457,24.133 91.431,24.126 91.396,24.122 C 91.358,24.117 91.32,24.112 91.282,24.106 C 91.244,24.1 91.196,24.092 91.138,24.083 C 91.046,24.067 90.976,24.033 90.924,23.983 C 90.874,23.931 90.839,23.847 90.819,23.729 C 90.8,23.612 90.79,23.446 90.791,23.231 L 90.772,17.699 C 90.772,17.494 90.769,17.343 90.764,17.247 C 90.758,17.15 90.749,17.09 90.736,17.063 C 90.724,17.035 90.705,17.024 90.683,17.027 C 90.657,17.025 90.623,17.041 90.576,17.073 Z M 150.183,17.069 C 150.014,17.073 149.866,17.077 149.736,17.082 C 149.606,17.086 149.478,17.09 149.351,17.094 C 149.15,17.099 148.943,17.105 148.728,17.112 C 148.514,17.117 148.308,17.121 148.112,17.122 C 147.993,17.12 147.874,17.114 147.753,17.105 C 147.632,17.094 147.507,17.091 147.378,17.094 C 147.324,17.093 147.284,17.099 147.259,17.11 C 147.232,17.122 147.22,17.142 147.22,17.17 C 147.221,17.185 147.231,17.196 147.252,17.205 C 147.272,17.215 147.298,17.222 147.329,17.227 C 147.377,17.231 147.419,17.235 147.454,17.237 C 147.489,17.24 147.523,17.246 147.557,17.255 C 147.626,17.268 147.686,17.3 147.738,17.349 C 147.788,17.399 147.829,17.486 147.859,17.61 C 147.888,17.733 147.907,17.911 147.913,18.145 C 147.917,18.267 147.92,18.407 147.924,18.562 C 147.926,18.718 147.929,18.901 147.931,19.108 C 147.933,19.317 147.934,19.561 147.934,19.841 L 147.934,21.507 C 147.934,21.873 147.934,22.173 147.933,22.407 C 147.933,22.641 147.933,22.829 147.932,22.971 C 147.929,23.111 147.928,23.225 147.925,23.313 C 147.923,23.401 147.919,23.481 147.913,23.552 C 147.908,23.712 147.875,23.834 147.816,23.919 C 147.756,24.003 147.648,24.061 147.488,24.092 C 147.451,24.101 147.406,24.108 147.351,24.11 C 147.297,24.114 147.247,24.117 147.2,24.122 C 147.164,24.125 147.134,24.131 147.109,24.139 C 147.085,24.147 147.073,24.159 147.071,24.178 C 147.07,24.205 147.084,24.225 147.109,24.236 C 147.135,24.247 147.175,24.253 147.23,24.253 C 147.304,24.253 147.389,24.252 147.482,24.252 C 147.577,24.251 147.694,24.248 147.832,24.244 C 147.972,24.24 148.144,24.234 148.35,24.225 L 148.526,24.225 C 148.629,24.226 148.76,24.226 148.919,24.226 C 149.077,24.226 149.246,24.226 149.425,24.227 C 149.604,24.227 149.778,24.227 149.946,24.228 C 150.113,24.229 150.257,24.229 150.378,24.23 C 150.499,24.231 150.579,24.232 150.62,24.235 C 150.731,24.239 150.826,24.246 150.907,24.255 C 150.988,24.266 151.044,24.277 151.076,24.291 C 151.105,24.306 151.126,24.315 151.141,24.32 C 151.157,24.326 151.171,24.329 151.185,24.329 C 151.2,24.328 151.21,24.32 151.217,24.304 C 151.222,24.288 151.226,24.268 151.225,24.244 C 151.222,24.213 151.212,24.164 151.193,24.096 C 151.173,24.028 151.157,23.929 151.146,23.799 C 151.141,23.728 151.136,23.646 151.129,23.554 C 151.123,23.461 151.116,23.354 151.106,23.232 C 151.1,23.183 151.091,23.145 151.077,23.115 C 151.064,23.086 151.047,23.071 151.026,23.07 C 150.998,23.071 150.977,23.081 150.964,23.103 C 150.953,23.126 150.947,23.155 150.947,23.193 C 150.947,23.256 150.943,23.314 150.934,23.368 C 150.925,23.421 150.913,23.468 150.897,23.507 C 150.865,23.614 150.792,23.695 150.678,23.749 C 150.565,23.803 150.401,23.84 150.184,23.857 C 150.148,23.861 150.082,23.864 149.988,23.867 C 149.894,23.87 149.786,23.873 149.664,23.875 C 149.543,23.878 149.422,23.879 149.302,23.881 C 149.182,23.882 149.08,23.883 148.993,23.884 C 148.906,23.884 148.85,23.886 148.825,23.886 C 148.806,23.886 148.791,23.878 148.781,23.863 C 148.771,23.848 148.766,23.823 148.766,23.791 L 148.766,21.175 C 148.766,21.142 148.769,21.118 148.777,21.103 C 148.785,21.088 148.801,21.08 148.825,21.08 L 149.017,21.08 C 149.116,21.08 149.235,21.081 149.371,21.081 C 149.507,21.082 149.645,21.083 149.786,21.084 C 149.926,21.086 150.052,21.088 150.162,21.09 C 150.274,21.092 150.354,21.096 150.402,21.099 C 150.533,21.107 150.637,21.122 150.713,21.144 C 150.789,21.167 150.85,21.205 150.897,21.26 C 150.922,21.289 150.943,21.312 150.961,21.329 C 150.979,21.346 150.998,21.355 151.017,21.355 C 151.032,21.355 151.044,21.35 151.052,21.339 C 151.061,21.326 151.066,21.307 151.066,21.28 C 151.065,21.252 151.056,21.195 151.038,21.11 C 151.02,21.025 151.003,20.905 150.987,20.75 C 150.972,20.603 150.963,20.475 150.96,20.368 C 150.955,20.26 150.952,20.172 150.947,20.106 C 150.943,20.059 150.935,20.022 150.923,19.999 C 150.913,19.975 150.897,19.964 150.878,19.964 C 150.849,19.965 150.83,19.981 150.821,20.011 C 150.812,20.04 150.808,20.076 150.808,20.115 C 150.809,20.158 150.806,20.203 150.8,20.248 C 150.793,20.294 150.784,20.337 150.768,20.381 C 150.752,20.454 150.705,20.519 150.63,20.576 C 150.554,20.634 150.428,20.673 150.254,20.693 C 150.183,20.7 150.079,20.707 149.942,20.713 C 149.806,20.718 149.661,20.724 149.507,20.727 C 149.353,20.732 149.214,20.735 149.091,20.738 C 148.967,20.74 148.881,20.741 148.835,20.741 C 148.811,20.74 148.793,20.734 148.782,20.722 C 148.771,20.709 148.766,20.693 148.766,20.674 L 148.766,19.841 C 148.766,19.773 148.766,19.682 148.765,19.567 C 148.765,19.452 148.764,19.325 148.764,19.188 C 148.762,19.051 148.762,18.915 148.762,18.783 C 148.761,18.651 148.762,18.534 148.762,18.434 C 148.762,18.334 148.764,18.262 148.766,18.221 C 148.773,18.027 148.799,17.875 148.845,17.764 C 148.889,17.652 148.972,17.575 149.093,17.528 C 149.177,17.496 149.287,17.473 149.423,17.461 C 149.559,17.448 149.723,17.442 149.916,17.444 C 150.067,17.442 150.219,17.447 150.373,17.457 C 150.527,17.469 150.672,17.492 150.808,17.528 C 150.963,17.574 151.077,17.651 151.15,17.762 C 151.223,17.873 151.278,18.028 151.315,18.23 C 151.324,18.281 151.335,18.318 151.348,18.339 C 151.36,18.361 151.38,18.37 151.404,18.37 C 151.432,18.369 151.449,18.353 151.455,18.324 C 151.462,18.296 151.464,18.265 151.463,18.23 C 151.462,18.208 151.459,18.159 151.449,18.083 C 151.441,18.005 151.43,17.916 151.417,17.816 C 151.404,17.716 151.39,17.619 151.375,17.528 C 151.36,17.436 151.347,17.363 151.334,17.31 C 151.312,17.23 151.285,17.172 151.251,17.137 C 151.215,17.102 151.163,17.081 151.093,17.073 C 151.024,17.066 150.926,17.063 150.799,17.065 C 150.557,17.065 150.352,17.066 150.183,17.069 Z M 43.973,17.11 C 43.946,17.122 43.934,17.142 43.934,17.17 C 43.933,17.185 43.941,17.196 43.956,17.205 C 43.97,17.215 44,17.222 44.043,17.227 C 44.092,17.231 44.139,17.236 44.184,17.242 C 44.227,17.247 44.266,17.255 44.301,17.264 C 44.37,17.283 44.426,17.314 44.467,17.357 C 44.509,17.4 44.54,17.464 44.561,17.549 C 44.584,17.632 44.599,17.743 44.608,17.881 C 44.623,18.085 44.633,18.351 44.64,18.679 C 44.646,19.008 44.648,19.396 44.648,19.841 L 44.648,21.507 C 44.648,21.873 44.648,22.173 44.648,22.407 C 44.648,22.642 44.647,22.829 44.646,22.971 C 44.645,23.112 44.642,23.226 44.64,23.313 C 44.637,23.401 44.633,23.481 44.629,23.554 C 44.622,23.712 44.59,23.834 44.531,23.919 C 44.471,24.004 44.362,24.061 44.202,24.093 C 44.171,24.097 44.134,24.1 44.089,24.102 C 44.045,24.105 44,24.108 43.954,24.112 C 43.908,24.116 43.869,24.122 43.837,24.131 C 43.804,24.139 43.787,24.155 43.786,24.178 C 43.786,24.205 43.798,24.225 43.824,24.236 C 43.849,24.247 43.89,24.253 43.944,24.253 C 44.138,24.252 44.329,24.247 44.516,24.238 C 44.703,24.23 44.885,24.226 45.065,24.225 L 45.297,24.225 C 45.418,24.225 45.563,24.225 45.734,24.226 C 45.904,24.226 46.085,24.226 46.273,24.226 C 46.461,24.227 46.641,24.227 46.814,24.228 C 46.986,24.228 47.133,24.229 47.258,24.23 C 47.381,24.231 47.462,24.232 47.503,24.235 C 47.618,24.238 47.717,24.243 47.802,24.248 C 47.886,24.254 47.948,24.269 47.989,24.291 C 48.005,24.301 48.021,24.31 48.037,24.317 C 48.054,24.325 48.068,24.328 48.078,24.329 C 48.098,24.328 48.113,24.32 48.122,24.304 C 48.133,24.288 48.138,24.268 48.138,24.244 C 48.137,24.218 48.129,24.177 48.116,24.122 C 48.102,24.066 48.089,24.009 48.078,23.951 C 48.065,23.861 48.055,23.78 48.049,23.708 C 48.043,23.637 48.038,23.565 48.033,23.494 C 48.03,23.425 48.025,23.346 48.019,23.258 C 48.017,23.201 48.007,23.155 47.989,23.121 C 47.971,23.087 47.95,23.07 47.93,23.069 C 47.906,23.069 47.889,23.079 47.879,23.098 C 47.87,23.119 47.865,23.15 47.86,23.192 C 47.857,23.238 47.85,23.29 47.837,23.348 C 47.826,23.408 47.806,23.465 47.78,23.522 C 47.754,23.579 47.717,23.627 47.672,23.665 C 47.614,23.713 47.537,23.754 47.442,23.788 C 47.348,23.821 47.23,23.84 47.086,23.846 C 46.581,23.855 46.075,23.865 45.57,23.874 C 45.54,23.874 45.518,23.866 45.503,23.85 C 45.488,23.834 45.481,23.807 45.481,23.77 L 45.481,21.156 C 45.48,21.128 45.483,21.106 45.492,21.092 C 45.502,21.078 45.521,21.071 45.549,21.071 C 45.688,21.071 45.837,21.071 45.998,21.071 C 46.159,21.072 46.32,21.073 46.481,21.074 C 46.641,21.075 46.791,21.078 46.928,21.08 C 47.101,21.082 47.237,21.088 47.336,21.096 C 47.436,21.104 47.514,21.12 47.57,21.145 C 47.627,21.169 47.677,21.208 47.721,21.26 C 47.745,21.289 47.764,21.313 47.779,21.329 C 47.795,21.346 47.811,21.355 47.83,21.355 C 47.85,21.355 47.863,21.348 47.87,21.334 C 47.877,21.322 47.881,21.304 47.879,21.28 C 47.878,21.252 47.869,21.195 47.851,21.111 C 47.834,21.025 47.817,20.905 47.801,20.75 C 47.787,20.608 47.778,20.481 47.773,20.37 C 47.769,20.26 47.765,20.168 47.761,20.096 C 47.756,20.045 47.75,20.005 47.741,19.978 C 47.732,19.95 47.715,19.937 47.691,19.937 C 47.663,19.938 47.643,19.953 47.633,19.981 C 47.623,20.01 47.616,20.048 47.612,20.096 C 47.609,20.168 47.595,20.247 47.571,20.331 C 47.547,20.417 47.497,20.493 47.418,20.563 C 47.34,20.632 47.216,20.678 47.048,20.703 C 46.995,20.709 46.918,20.714 46.813,20.717 C 46.708,20.721 46.591,20.723 46.461,20.725 C 46.332,20.727 46.204,20.729 46.079,20.73 C 45.952,20.731 45.842,20.731 45.747,20.731 C 45.651,20.732 45.586,20.732 45.549,20.732 C 45.526,20.732 45.507,20.726 45.497,20.714 C 45.486,20.701 45.48,20.678 45.481,20.646 L 45.481,19.841 C 45.48,19.436 45.481,19.072 45.484,18.745 C 45.487,18.42 45.496,18.148 45.511,17.927 C 45.523,17.715 45.562,17.555 45.625,17.447 C 45.688,17.339 45.785,17.278 45.917,17.264 C 45.983,17.255 46.054,17.247 46.127,17.242 C 46.201,17.236 46.266,17.231 46.323,17.227 C 46.368,17.222 46.398,17.214 46.417,17.204 C 46.434,17.194 46.443,17.179 46.442,17.161 C 46.443,17.137 46.429,17.12 46.404,17.109 C 46.378,17.099 46.338,17.094 46.283,17.094 C 46.095,17.094 45.911,17.097 45.732,17.101 C 45.553,17.106 45.402,17.11 45.279,17.115 C 45.156,17.12 45.085,17.122 45.065,17.122 L 44.976,17.122 C 44.906,17.118 44.818,17.115 44.711,17.11 C 44.604,17.106 44.495,17.102 44.383,17.099 C 44.272,17.096 44.175,17.094 44.092,17.094 C 44.039,17.094 43.999,17.099 43.973,17.11 Z M 70.56,17.11 C 70.535,17.122 70.522,17.141 70.522,17.17 C 70.521,17.183 70.527,17.197 70.539,17.207 C 70.551,17.219 70.573,17.225 70.601,17.226 C 70.647,17.226 70.697,17.23 70.749,17.237 C 70.803,17.245 70.853,17.254 70.899,17.263 C 70.995,17.285 71.063,17.342 71.102,17.436 C 71.142,17.528 71.169,17.644 71.186,17.785 C 71.202,17.918 71.214,18.087 71.222,18.291 C 71.229,18.497 71.232,18.729 71.234,18.991 C 71.235,19.252 71.237,19.535 71.235,19.84 L 71.235,21.507 C 71.235,21.873 71.235,22.173 71.235,22.407 C 71.235,22.641 71.234,22.829 71.233,22.971 C 71.232,23.111 71.23,23.225 71.227,23.313 C 71.225,23.401 71.221,23.481 71.216,23.552 C 71.21,23.712 71.177,23.834 71.118,23.919 C 71.059,24.003 70.949,24.061 70.789,24.092 C 70.746,24.102 70.691,24.109 70.625,24.114 C 70.558,24.118 70.501,24.122 70.453,24.122 C 70.432,24.122 70.414,24.126 70.398,24.136 C 70.382,24.145 70.374,24.158 70.373,24.178 C 70.373,24.205 70.385,24.225 70.412,24.236 C 70.438,24.247 70.478,24.253 70.531,24.253 C 70.646,24.253 70.764,24.251 70.889,24.248 C 71.012,24.246 71.129,24.243 71.241,24.239 C 71.352,24.236 71.444,24.232 71.52,24.229 C 71.594,24.227 71.638,24.226 71.652,24.226 C 71.683,24.226 71.744,24.227 71.838,24.229 C 71.931,24.232 72.04,24.236 72.163,24.239 C 72.286,24.243 72.407,24.246 72.526,24.248 C 72.643,24.251 72.743,24.253 72.823,24.253 C 73.031,24.254 73.242,24.245 73.454,24.225 C 73.666,24.205 73.871,24.164 74.072,24.105 C 74.273,24.044 74.461,23.955 74.638,23.837 C 74.725,23.78 74.819,23.692 74.925,23.572 C 75.03,23.453 75.122,23.308 75.199,23.135 C 75.277,22.963 75.318,22.766 75.321,22.548 C 75.323,22.316 75.285,22.081 75.208,21.844 C 75.132,21.608 75.005,21.366 74.83,21.121 C 74.653,20.876 74.418,20.621 74.122,20.36 C 74.527,19.86 74.901,19.406 75.243,18.995 C 75.584,18.585 75.898,18.231 76.184,17.937 C 76.363,17.759 76.529,17.622 76.68,17.528 C 76.832,17.433 76.969,17.366 77.089,17.327 C 77.209,17.288 77.31,17.264 77.393,17.254 C 77.488,17.24 77.569,17.233 77.635,17.229 C 77.701,17.226 77.749,17.225 77.78,17.226 C 77.805,17.225 77.827,17.219 77.843,17.207 C 77.86,17.197 77.869,17.183 77.869,17.17 C 77.87,17.141 77.853,17.122 77.818,17.11 C 77.781,17.099 77.72,17.093 77.632,17.094 L 76.928,17.094 C 76.744,17.094 76.59,17.099 76.463,17.112 C 76.337,17.123 76.226,17.141 76.133,17.167 C 76.039,17.194 75.95,17.229 75.867,17.272 C 75.726,17.345 75.589,17.446 75.456,17.573 C 75.323,17.7 75.181,17.854 75.032,18.037 C 74.883,18.218 74.715,18.428 74.528,18.664 C 74.388,18.841 74.248,19.022 74.107,19.205 C 73.967,19.389 73.839,19.557 73.723,19.71 C 73.608,19.862 73.515,19.981 73.448,20.067 C 73.428,20.085 73.409,20.1 73.391,20.109 C 73.371,20.118 73.347,20.124 73.319,20.123 L 72.098,20.142 C 72.074,20.142 72.056,20.135 72.046,20.121 C 72.034,20.109 72.028,20.091 72.03,20.067 L 72.03,19.84 C 72.028,19.535 72.03,19.252 72.031,18.991 C 72.033,18.729 72.036,18.497 72.043,18.291 C 72.051,18.087 72.063,17.918 72.079,17.785 C 72.088,17.692 72.103,17.609 72.127,17.536 C 72.149,17.462 72.187,17.401 72.24,17.355 C 72.292,17.307 72.367,17.277 72.465,17.263 C 72.513,17.258 72.566,17.251 72.623,17.245 C 72.68,17.239 72.736,17.235 72.787,17.231 C 72.84,17.228 72.881,17.226 72.912,17.226 C 72.941,17.225 72.962,17.219 72.973,17.207 C 72.986,17.197 72.991,17.183 72.991,17.17 C 72.991,17.146 72.979,17.128 72.953,17.114 C 72.926,17.101 72.886,17.094 72.833,17.094 C 72.695,17.094 72.557,17.096 72.419,17.099 C 72.281,17.101 72.154,17.105 72.036,17.108 C 71.92,17.112 71.823,17.115 71.748,17.117 C 71.671,17.12 71.627,17.122 71.613,17.122 C 71.607,17.122 71.572,17.12 71.505,17.117 C 71.437,17.115 71.354,17.112 71.255,17.108 C 71.154,17.105 71.053,17.101 70.95,17.099 C 70.848,17.096 70.757,17.094 70.681,17.094 C 70.626,17.093 70.586,17.099 70.56,17.11 Z M 98.559,17.11 C 98.533,17.122 98.52,17.141 98.52,17.17 C 98.519,17.183 98.527,17.197 98.542,17.207 C 98.556,17.219 98.586,17.225 98.63,17.226 C 98.66,17.226 98.7,17.228 98.747,17.233 C 98.795,17.237 98.842,17.245 98.887,17.254 C 98.984,17.276 99.053,17.334 99.095,17.431 C 99.137,17.527 99.167,17.644 99.185,17.785 C 99.201,17.918 99.213,18.087 99.219,18.292 C 99.226,18.497 99.231,18.729 99.232,18.991 C 99.234,19.253 99.234,19.536 99.234,19.84 L 99.234,21.507 C 99.234,21.873 99.234,22.173 99.234,22.407 C 99.234,22.642 99.233,22.829 99.232,22.971 C 99.231,23.111 99.229,23.226 99.226,23.313 C 99.223,23.401 99.219,23.481 99.215,23.554 C 99.206,23.713 99.174,23.835 99.12,23.921 C 99.067,24.007 98.986,24.06 98.877,24.083 C 98.821,24.098 98.765,24.107 98.708,24.113 C 98.652,24.118 98.607,24.122 98.57,24.122 C 98.55,24.122 98.531,24.126 98.515,24.136 C 98.499,24.145 98.491,24.158 98.49,24.178 C 98.49,24.205 98.503,24.225 98.529,24.236 C 98.555,24.247 98.595,24.253 98.649,24.253 C 98.733,24.253 98.829,24.251 98.936,24.248 C 99.045,24.246 99.15,24.243 99.254,24.239 C 99.357,24.236 99.446,24.232 99.519,24.229 C 99.593,24.227 99.636,24.226 99.651,24.226 C 99.666,24.226 99.709,24.227 99.782,24.229 C 99.854,24.232 99.942,24.236 100.043,24.239 C 100.145,24.243 100.249,24.246 100.351,24.248 C 100.455,24.251 100.545,24.253 100.622,24.253 C 100.676,24.253 100.716,24.247 100.741,24.236 C 100.768,24.225 100.78,24.205 100.78,24.178 C 100.779,24.158 100.771,24.145 100.755,24.136 C 100.74,24.126 100.722,24.122 100.702,24.122 C 100.668,24.122 100.633,24.118 100.595,24.114 C 100.559,24.109 100.511,24.102 100.453,24.092 C 100.322,24.07 100.23,24.016 100.177,23.929 C 100.124,23.843 100.093,23.718 100.087,23.554 C 100.082,23.481 100.077,23.401 100.075,23.313 C 100.072,23.226 100.071,23.111 100.069,22.971 C 100.068,22.829 100.067,22.642 100.067,22.407 C 100.067,22.173 100.067,21.873 100.067,21.507 L 100.067,19.84 C 100.066,19.536 100.067,19.253 100.068,18.991 C 100.069,18.729 100.074,18.497 100.081,18.292 C 100.089,18.087 100.1,17.918 100.116,17.785 C 100.125,17.692 100.14,17.609 100.164,17.536 C 100.186,17.462 100.225,17.401 100.277,17.355 C 100.33,17.307 100.405,17.277 100.503,17.263 C 100.551,17.258 100.602,17.251 100.657,17.245 C 100.712,17.239 100.762,17.235 100.809,17.231 C 100.854,17.228 100.889,17.226 100.909,17.226 C 100.954,17.225 100.985,17.219 101.003,17.207 C 101.02,17.197 101.029,17.183 101.028,17.17 C 101.029,17.146 101.018,17.128 100.995,17.114 C 100.972,17.101 100.933,17.094 100.88,17.094 C 100.741,17.094 100.603,17.096 100.464,17.099 C 100.326,17.101 100.197,17.105 100.08,17.108 C 99.961,17.112 99.863,17.115 99.786,17.117 C 99.71,17.12 99.664,17.122 99.651,17.122 C 99.636,17.122 99.593,17.12 99.519,17.117 C 99.448,17.115 99.36,17.112 99.258,17.108 C 99.156,17.105 99.053,17.101 98.949,17.099 C 98.846,17.096 98.756,17.094 98.679,17.094 C 98.625,17.093 98.585,17.099 98.559,17.11 Z M 109.614,17.11 C 109.588,17.122 109.575,17.141 109.575,17.17 C 109.575,17.183 109.581,17.197 109.592,17.207 C 109.605,17.219 109.625,17.225 109.655,17.226 C 109.701,17.226 109.75,17.23 109.803,17.237 C 109.857,17.245 109.906,17.254 109.952,17.263 C 110.049,17.285 110.116,17.342 110.156,17.436 C 110.195,17.528 110.223,17.644 110.239,17.785 C 110.256,17.918 110.268,18.087 110.274,18.292 C 110.281,18.497 110.286,18.729 110.287,18.991 C 110.289,19.252 110.289,19.536 110.289,19.84 L 110.289,23.847 C 110.046,23.842 109.801,23.839 109.556,23.837 C 109.31,23.835 109.065,23.832 108.822,23.827 C 108.619,23.825 108.452,23.814 108.321,23.795 C 108.191,23.776 108.086,23.745 108.006,23.702 C 107.927,23.659 107.861,23.599 107.811,23.524 C 107.757,23.445 107.72,23.385 107.697,23.343 C 107.673,23.299 107.655,23.262 107.642,23.231 C 107.627,23.193 107.611,23.168 107.597,23.155 C 107.579,23.142 107.562,23.135 107.543,23.136 C 107.528,23.136 107.516,23.143 107.506,23.158 C 107.498,23.171 107.494,23.193 107.493,23.222 C 107.494,23.249 107.504,23.309 107.525,23.404 C 107.544,23.499 107.568,23.604 107.595,23.72 C 107.622,23.837 107.647,23.94 107.668,24.033 C 107.691,24.125 107.705,24.182 107.712,24.205 C 107.719,24.225 107.727,24.248 107.737,24.277 C 107.747,24.304 107.759,24.329 107.771,24.35 C 107.784,24.372 107.797,24.383 107.811,24.384 C 107.842,24.381 107.89,24.365 107.954,24.335 C 108.019,24.306 108.116,24.285 108.247,24.272 C 108.345,24.263 108.447,24.254 108.552,24.247 C 108.657,24.24 108.751,24.235 108.838,24.231 C 108.925,24.227 108.989,24.226 109.03,24.225 L 112.746,24.225 C 112.904,24.226 113.041,24.229 113.158,24.238 C 113.273,24.246 113.371,24.258 113.45,24.272 C 113.524,24.283 113.583,24.293 113.629,24.303 C 113.675,24.313 113.708,24.319 113.727,24.319 C 113.751,24.319 113.766,24.307 113.77,24.284 C 113.776,24.262 113.777,24.236 113.777,24.206 C 113.777,24.133 113.775,24.043 113.773,23.938 C 113.769,23.833 113.766,23.726 113.762,23.617 C 113.758,23.509 113.754,23.414 113.752,23.331 C 113.749,23.248 113.748,23.193 113.748,23.165 C 113.747,23.122 113.74,23.09 113.727,23.071 C 113.715,23.05 113.697,23.041 113.678,23.041 C 113.653,23.039 113.635,23.05 113.623,23.072 C 113.611,23.094 113.603,23.137 113.598,23.202 C 113.598,23.22 113.596,23.238 113.594,23.255 C 113.59,23.271 113.589,23.288 113.588,23.306 C 113.582,23.402 113.542,23.487 113.47,23.564 C 113.399,23.639 113.276,23.701 113.102,23.746 C 112.927,23.793 112.684,23.821 112.37,23.827 C 112.162,23.832 111.954,23.835 111.745,23.837 C 111.538,23.839 111.33,23.842 111.121,23.847 L 111.121,19.84 C 111.121,19.536 111.122,19.252 111.123,18.991 C 111.125,18.729 111.129,18.497 111.136,18.292 C 111.143,18.087 111.155,17.918 111.171,17.785 C 111.179,17.692 111.195,17.609 111.218,17.536 C 111.241,17.462 111.28,17.401 111.332,17.355 C 111.385,17.307 111.46,17.277 111.558,17.263 C 111.605,17.258 111.657,17.251 111.714,17.245 C 111.773,17.239 111.827,17.235 111.879,17.231 C 111.931,17.228 111.972,17.226 112.003,17.226 C 112.033,17.225 112.053,17.219 112.065,17.207 C 112.077,17.197 112.083,17.183 112.083,17.17 C 112.083,17.146 112.07,17.128 112.044,17.114 C 112.018,17.101 111.978,17.094 111.924,17.094 C 111.786,17.094 111.648,17.096 111.511,17.099 C 111.373,17.101 111.245,17.105 111.129,17.108 C 111.012,17.112 110.916,17.115 110.84,17.117 C 110.764,17.12 110.719,17.122 110.706,17.122 C 110.691,17.122 110.648,17.12 110.575,17.117 C 110.502,17.115 110.415,17.112 110.312,17.108 C 110.211,17.105 110.108,17.101 110.004,17.099 C 109.9,17.096 109.811,17.094 109.734,17.094 C 109.68,17.093 109.639,17.099 109.614,17.11 Z M 133.955,17.11 C 133.929,17.122 133.917,17.141 133.917,17.17 C 133.917,17.183 133.923,17.197 133.934,17.207 C 133.945,17.219 133.967,17.225 133.997,17.226 C 134.042,17.226 134.092,17.23 134.145,17.237 C 134.199,17.245 134.248,17.254 134.293,17.263 C 134.389,17.285 134.458,17.342 134.497,17.436 C 134.536,17.528 134.564,17.644 134.581,17.785 C 134.597,17.918 134.61,18.087 134.616,18.291 C 134.623,18.497 134.628,18.729 134.629,18.991 C 134.63,19.252 134.631,19.535 134.631,19.84 L 134.631,21.507 C 134.631,21.873 134.631,22.173 134.63,22.407 C 134.63,22.641 134.629,22.829 134.628,22.971 C 134.627,23.111 134.625,23.225 134.622,23.313 C 134.62,23.401 134.615,23.481 134.611,23.552 C 134.605,23.712 134.572,23.834 134.513,23.919 C 134.453,24.003 134.344,24.061 134.185,24.092 C 134.142,24.102 134.086,24.109 134.02,24.114 C 133.953,24.118 133.895,24.122 133.847,24.122 C 133.827,24.122 133.809,24.126 133.793,24.136 C 133.778,24.145 133.769,24.158 133.769,24.178 C 133.767,24.205 133.781,24.225 133.806,24.236 C 133.833,24.247 133.872,24.253 133.927,24.253 C 134.04,24.253 134.159,24.251 134.283,24.248 C 134.408,24.246 134.525,24.243 134.636,24.239 C 134.746,24.236 134.839,24.232 134.914,24.229 C 134.988,24.227 135.033,24.226 135.048,24.226 C 135.077,24.226 135.139,24.227 135.232,24.229 C 135.326,24.232 135.434,24.236 135.558,24.239 C 135.681,24.243 135.802,24.246 135.921,24.248 C 136.038,24.251 136.137,24.253 136.217,24.253 C 136.427,24.254 136.637,24.245 136.849,24.225 C 137.06,24.205 137.267,24.164 137.467,24.105 C 137.667,24.044 137.856,23.955 138.032,23.837 C 138.119,23.78 138.215,23.692 138.32,23.572 C 138.425,23.453 138.516,23.308 138.594,23.135 C 138.671,22.963 138.713,22.766 138.716,22.548 C 138.718,22.316 138.681,22.081 138.603,21.844 C 138.527,21.608 138.4,21.366 138.224,21.121 C 138.048,20.876 137.812,20.621 137.517,20.36 C 137.923,19.86 138.296,19.406 138.637,18.995 C 138.978,18.585 139.292,18.231 139.579,17.937 C 139.758,17.759 139.923,17.622 140.075,17.528 C 140.228,17.433 140.364,17.366 140.483,17.327 C 140.603,17.288 140.705,17.264 140.788,17.254 C 140.883,17.24 140.964,17.233 141.03,17.229 C 141.096,17.226 141.145,17.225 141.175,17.226 C 141.201,17.225 141.222,17.219 141.239,17.207 C 141.255,17.197 141.264,17.183 141.264,17.17 C 141.265,17.141 141.248,17.122 141.212,17.11 C 141.176,17.099 141.114,17.093 141.026,17.094 L 140.322,17.094 C 140.14,17.094 139.985,17.099 139.858,17.112 C 139.731,17.123 139.621,17.141 139.527,17.167 C 139.434,17.194 139.346,17.229 139.261,17.272 C 139.121,17.345 138.984,17.446 138.851,17.573 C 138.717,17.7 138.576,17.854 138.426,18.037 C 138.278,18.218 138.11,18.428 137.923,18.664 C 137.783,18.841 137.642,19.022 137.502,19.205 C 137.362,19.389 137.234,19.557 137.119,19.71 C 137.002,19.862 136.91,19.981 136.842,20.067 C 136.823,20.085 136.805,20.1 136.785,20.109 C 136.766,20.118 136.742,20.124 136.714,20.123 L 135.494,20.142 C 135.469,20.142 135.45,20.135 135.44,20.121 C 135.429,20.109 135.424,20.091 135.424,20.067 L 135.424,19.84 C 135.424,19.535 135.424,19.252 135.425,18.991 C 135.428,18.729 135.432,18.497 135.439,18.291 C 135.446,18.087 135.457,17.918 135.473,17.785 C 135.482,17.692 135.498,17.609 135.521,17.536 C 135.544,17.462 135.582,17.401 135.634,17.355 C 135.687,17.307 135.762,17.277 135.86,17.263 C 135.908,17.258 135.96,17.251 136.018,17.245 C 136.076,17.239 136.13,17.235 136.182,17.231 C 136.234,17.228 136.275,17.226 136.306,17.226 C 136.336,17.225 136.356,17.219 136.369,17.207 C 136.38,17.197 136.386,17.183 136.386,17.17 C 136.386,17.146 136.373,17.128 136.347,17.114 C 136.322,17.101 136.282,17.094 136.227,17.094 C 136.089,17.094 135.951,17.096 135.813,17.099 C 135.676,17.101 135.549,17.105 135.431,17.108 C 135.315,17.112 135.218,17.115 135.142,17.117 C 135.066,17.12 135.021,17.122 135.008,17.122 C 135.003,17.122 134.967,17.12 134.899,17.117 C 134.832,17.115 134.749,17.112 134.649,17.108 C 134.549,17.105 134.447,17.101 134.345,17.099 C 134.242,17.096 134.152,17.094 134.076,17.094 C 134.021,17.093 133.981,17.099 133.955,17.11 Z M 73.516,20.45 C 73.645,20.474 73.768,20.523 73.884,20.596 C 74.061,20.711 74.205,20.894 74.316,21.142 C 74.428,21.389 74.485,21.694 74.488,22.055 C 74.487,22.451 74.418,22.791 74.28,23.073 C 74.142,23.355 73.945,23.572 73.69,23.722 C 73.434,23.873 73.128,23.948 72.774,23.95 C 72.622,23.95 72.486,23.944 72.366,23.932 C 72.246,23.921 72.161,23.908 72.108,23.894 C 72.083,23.883 72.064,23.87 72.05,23.85 C 72.036,23.832 72.03,23.808 72.03,23.78 L 72.03,20.682 C 72.028,20.658 72.034,20.637 72.046,20.618 C 72.056,20.598 72.074,20.582 72.098,20.568 C 72.151,20.539 72.229,20.514 72.338,20.491 C 72.446,20.468 72.569,20.45 72.708,20.438 C 72.849,20.424 72.993,20.417 73.14,20.417 C 73.261,20.415 73.386,20.425 73.516,20.45 Z M 136.911,20.45 C 137.04,20.474 137.163,20.523 137.278,20.596 C 137.456,20.711 137.6,20.894 137.712,21.142 C 137.823,21.389 137.881,21.694 137.883,22.055 C 137.882,22.451 137.812,22.791 137.674,23.073 C 137.537,23.355 137.34,23.572 137.084,23.722 C 136.829,23.873 136.523,23.948 136.168,23.95 C 136.016,23.95 135.881,23.944 135.761,23.932 C 135.642,23.921 135.555,23.908 135.503,23.894 C 135.478,23.883 135.458,23.87 135.445,23.85 C 135.431,23.832 135.424,23.808 135.424,23.78 L 135.424,20.682 C 135.424,20.658 135.429,20.637 135.44,20.618 C 135.45,20.598 135.469,20.582 135.494,20.568 C 135.545,20.539 135.625,20.514 135.732,20.491 C 135.841,20.468 135.964,20.45 136.104,20.438 C 136.243,20.424 136.387,20.417 136.536,20.417 C 136.655,20.415 136.781,20.425 136.911,20.45 Z" marker-start="none" marker-end="none"/>
      </g>
     </g>
     <g id="Group_3" fill-rule="nonzero" stroke-linejoin="round" stroke-width="1.225" fill="#a9bc56" stroke-miterlimit="79.8403193612775">
      <g id="Group_4">
       <path d="M 10.938,36.198 C 10.938,38.067 10.938,39.598 10.939,40.792 C 10.941,41.986 10.944,42.944 10.95,43.664 C 10.956,44.385 10.965,44.968 10.979,45.413 C 10.991,45.858 11.011,46.266 11.033,46.636 C 11.064,47.484 11.194,48.143 11.421,48.617 C 11.65,49.09 12.077,49.364 12.706,49.438 C 12.921,49.463 13.124,49.486 13.314,49.504 C 13.506,49.524 13.685,49.534 13.853,49.535 C 14,49.535 14.123,49.558 14.222,49.607 C 14.322,49.655 14.374,49.726 14.378,49.823 C 14.379,49.964 14.317,50.063 14.193,50.122 C 14.068,50.18 13.876,50.208 13.613,50.206 C 13.243,50.205 12.809,50.198 12.311,50.184 C 11.812,50.169 11.316,50.154 10.826,50.135 C 10.333,50.117 9.913,50.101 9.563,50.088 C 9.213,50.074 9.004,50.067 8.933,50.066 C 8.863,50.067 8.646,50.074 8.282,50.088 C 7.92,50.101 7.468,50.117 6.927,50.135 C 6.386,50.154 5.814,50.169 5.212,50.184 C 4.61,50.198 4.035,50.205 3.488,50.206 C 3.228,50.204 3.042,50.172 2.932,50.11 C 2.822,50.047 2.768,49.968 2.771,49.871 C 2.771,49.772 2.817,49.693 2.908,49.631 C 2.999,49.568 3.129,49.536 3.296,49.535 C 3.522,49.535 3.776,49.523 4.055,49.499 C 4.335,49.475 4.575,49.438 4.777,49.39 C 5.546,49.23 6.075,48.934 6.36,48.501 C 6.645,48.07 6.803,47.448 6.832,46.636 C 6.855,46.266 6.873,45.858 6.887,45.413 C 6.901,44.968 6.91,44.385 6.916,43.664 C 6.921,42.944 6.925,41.986 6.926,40.792 C 6.927,39.598 6.927,38.067 6.927,36.198 L 6.927,22.235 C 6.927,19.755 6.868,17.63 6.748,15.859 C 6.629,14.088 6.449,12.586 6.207,11.355 C 5.965,10.123 5.662,9.078 5.296,8.218 C 4.931,7.357 4.502,6.598 4.011,5.94 C 3.518,5.283 2.961,4.642 2.341,4.018 C 2.119,3.793 1.858,3.554 1.559,3.304 C 1.259,3.056 0.962,2.842 0.669,2.664 C 0.453,2.526 0.288,2.405 0.173,2.303 C 0.058,2.2 0.001,2.079 0,1.94 C 0.005,1.844 0.042,1.771 0.114,1.722 C 0.184,1.674 0.258,1.65 0.334,1.65 C 0.405,1.651 0.467,1.661 0.519,1.68 C 0.572,1.7 0.622,1.722 0.669,1.747 C 0.916,1.876 1.209,2.053 1.547,2.278 C 1.884,2.503 2.212,2.729 2.532,2.955 C 4.453,4.296 5.974,5.564 7.094,6.759 C 8.215,7.956 9.018,9.152 9.506,10.348 C 9.859,11.192 10.135,12.05 10.333,12.922 C 10.531,13.794 10.673,14.761 10.758,15.826 C 10.845,16.89 10.896,18.133 10.915,19.554 C 10.934,20.976 10.942,22.659 10.938,24.602 L 10.938,36.198 Z" marker-start="none" marker-end="none"/>
      </g>
     </g>
     <path d="M 11.275,12.707 C 11.484,13.632 11.632,14.647 11.72,15.748 C 11.809,16.84 11.862,18.105 11.88,19.542 C 11.899,20.969 11.907,22.657 11.903,24.603 L 11.903,25.34 L 11.93,25.34 C 11.926,26.182 11.922,27.056 11.922,27.964 L 11.922,31.954 C 11.918,32.149 11.94,32.283 11.99,32.359 C 12.039,32.433 12.144,32.469 12.301,32.466 C 12.537,32.466 12.964,32.465 13.58,32.462 C 14.196,32.461 14.88,32.454 15.63,32.444 C 16.381,32.434 17.078,32.418 17.722,32.394 C 18.364,32.37 18.831,32.337 19.122,32.295 C 19.991,32.165 20.623,31.907 21.019,31.522 C 21.414,31.138 21.666,30.728 21.772,30.293 C 21.88,29.859 21.933,29.5 21.937,29.217 C 21.955,28.958 21.985,28.754 22.025,28.606 C 22.063,28.458 22.16,28.382 22.315,28.379 C 22.449,28.378 22.546,28.446 22.606,28.584 C 22.666,28.722 22.695,28.932 22.694,29.217 C 22.694,29.608 22.71,30.066 22.742,30.592 C 22.775,31.117 22.832,31.761 22.911,32.522 C 22.999,33.374 23.081,34.044 23.161,34.534 C 23.24,35.024 23.283,35.34 23.289,35.482 C 23.29,35.628 23.274,35.749 23.242,35.845 C 23.209,35.941 23.154,35.992 23.074,35.995 C 22.97,35.994 22.88,35.953 22.804,35.874 C 22.726,35.794 22.636,35.682 22.532,35.539 C 22.308,35.24 22.054,35.015 21.772,34.864 C 21.492,34.715 21.125,34.613 20.676,34.558 C 20.226,34.504 19.636,34.469 18.905,34.455 C 18.303,34.438 17.631,34.424 16.892,34.415 C 16.153,34.407 15.39,34.401 14.602,34.4 C 13.815,34.399 13.048,34.399 12.301,34.399 C 12.144,34.402 12.039,34.452 11.99,34.548 C 11.94,34.644 11.918,34.766 11.922,34.911 L 11.921,44.314 C 11.928,44.734 11.935,45.091 11.943,45.384 C 11.956,45.82 11.975,46.217 11.998,46.587 C 12.027,47.387 12.146,47.897 12.291,48.198 C 12.319,48.256 12.359,48.318 12.446,48.37 C 13.613,48.37 14.745,48.358 15.84,48.336 C 16.946,48.313 18.076,48.287 19.23,48.257 C 19.905,48.242 20.995,48.31 21.494,48.216 C 21.993,48.123 22.153,48.047 22.503,47.717 C 22.718,47.478 22.776,47.041 22.845,46.578 C 22.828,44.405 23.862,44.303 24.027,46.767 C 24.044,47.375 23.971,48.238 24.07,48.96 C 24.101,49.258 24.148,49.574 24.213,49.907 C 24.218,49.933 24.222,49.958 24.227,49.982 C 25.623,49.402 26.606,48.023 26.606,46.417 L 26.606,15.645 C 26.606,13.514 24.876,11.784 22.745,11.784 L 11.036,11.784 C 11.125,12.089 11.205,12.398 11.275,12.707 Z" fill="#5e5756" stroke-linejoin="miter" stroke-width="0.161" marker-start="none" marker-end="none" stroke-miterlimit="79.8403193612775"/>
    </g>
   </g>
  </g>
 </g>
</svg>
